<svg width="136" height="43" viewBox="0 0 136 43" fill="none" xmlns="http://www.w3.org/2000/svg">
<rect width="42.0912" height="42.2964" rx="15" fill="#00B2EB"/>
<path d="M10.0178 28.5506C10.761 28.3127 11.6826 27.9709 12.7826 27.5249C13.8825 27.0493 14.923 26.5588 15.9041 26.0534C14.923 24.1508 14.4325 21.9508 14.4325 19.4537C14.4325 17.6105 14.7744 15.9903 15.4581 14.5931C16.1419 13.1661 17.0932 12.0513 18.3121 11.2486C19.5309 10.4162 20.9133 10 22.4592 10C23.7673 10 24.9267 10.3121 25.9374 10.9364C26.9482 11.531 27.736 12.3634 28.3008 13.4336C28.8657 14.5039 29.1481 15.7376 29.1481 17.1348C29.0292 20.7023 26.5023 24.0764 21.5674 27.2574C22.5484 28.0898 23.9159 28.506 25.6699 28.506C26.532 28.506 27.3941 28.3871 28.2563 28.1492C29.1184 27.9114 29.9508 27.5844 30.7534 27.1682C31.1994 27.4952 31.5264 27.9857 31.7345 28.6398C31.9723 29.2641 32.0912 29.8735 32.0912 30.4681C31.1102 31.0329 30.0697 31.4788 28.9697 31.8058C27.8698 32.1329 26.7104 32.2964 25.4915 32.2964H25.4469C23.901 32.2964 22.4592 32.0288 21.1214 31.4937C19.8134 30.9288 18.758 30.1559 17.9553 29.1749C16.8554 29.7397 15.6811 30.2897 14.4325 30.8248C13.2136 31.3302 12.1732 31.7167 11.311 31.9842C10.8354 31.568 10.4935 31.0775 10.2854 30.5126C10.0476 29.9478 9.95838 29.2938 10.0178 28.5506ZM18.3121 19.0969C18.3121 21.2076 18.654 22.9616 19.3377 24.3589C21.389 22.9913 22.8754 21.7725 23.797 20.7023C24.7186 19.6023 25.2091 18.4132 25.2685 17.1348C25.2685 16.0646 25.001 15.2322 24.4659 14.6376C23.9605 14.0133 23.247 13.7012 22.3254 13.7012C21.166 13.7012 20.1998 14.2214 19.4269 15.2619C18.6837 16.3024 18.3121 17.5808 18.3121 19.0969Z" fill="white"/>
<path d="M114.64 31.6945C114.318 31.6945 114.046 31.5461 113.824 31.2495C113.601 30.9528 113.49 30.5943 113.49 30.174C113.49 29.6548 113.614 29.2593 113.861 28.9873C114.084 28.6907 114.393 28.5423 114.788 28.5423C115.95 28.5423 117.124 28.394 118.311 28.0973C119.473 27.8006 120.722 27.2691 122.057 26.5027C121.315 24.871 120.944 23.0415 120.944 21.0143C120.944 19.5062 121.228 18.1712 121.797 17.0092C122.39 15.8225 123.182 14.8831 124.17 14.1908C125.184 13.4986 126.321 13.1525 127.582 13.1525C128.645 13.1525 129.597 13.3997 130.438 13.8941C131.278 14.3886 131.946 15.0561 132.44 15.8967C132.935 16.7373 133.182 17.6891 133.182 18.7522C133.182 20.3344 132.626 21.8425 131.513 23.2764C130.401 24.7103 128.781 26.0577 126.655 27.3186C127.619 28.1344 128.954 28.5423 130.66 28.5423C131.377 28.5423 132.094 28.4434 132.811 28.2457C133.528 28.0479 134.22 27.7759 134.888 27.4298C135.259 27.7018 135.53 28.1097 135.704 28.6536C135.901 29.1728 136 29.6796 136 30.174C135.184 30.6438 134.319 31.0146 133.404 31.2865C132.49 31.5585 131.525 31.6945 130.512 31.6945H130.475C129.09 31.6945 127.817 31.472 126.655 31.027C125.493 30.5572 124.541 29.9144 123.8 29.0986C120.635 30.8292 117.582 31.6945 114.64 31.6945ZM124.133 20.903C124.133 22.5347 124.43 23.845 125.023 24.8339C128.311 22.9303 129.956 20.903 129.956 18.7522C129.956 17.961 129.745 17.343 129.325 16.8979C128.905 16.4529 128.324 16.2304 127.582 16.2304C126.593 16.2304 125.765 16.6754 125.098 17.5655C124.455 18.4308 124.133 19.5433 124.133 20.903Z" fill="#00B2EB"/>
<path d="M95.7854 31.6945C95.464 31.6945 95.2044 31.5461 95.0066 31.2495C94.8088 30.9528 94.71 30.5696 94.71 30.0999C94.71 29.0368 95.155 28.5053 96.045 28.5053C96.8361 28.5053 97.7138 28.0232 98.6779 27.059C99.6421 26.0701 100.767 24.4878 102.053 22.3122L106.021 15.6C105.971 15.2539 105.946 14.8831 105.946 14.4875C105.946 13.2514 106.169 12.3366 106.614 11.7433C107.084 11.1499 107.467 10.7915 107.764 10.6679C108.184 10.569 108.629 10.5813 109.099 10.7049C109.593 10.8038 110.038 10.9769 110.434 11.2241C110.829 11.4713 111.101 11.768 111.249 12.1141C111.151 12.5591 110.965 13.0907 110.693 13.7087C110.421 14.3268 109.989 15.155 109.395 16.1934C109.568 16.4653 109.791 16.7373 110.063 17.0092C110.335 17.2812 110.668 17.5778 111.064 17.8992L113.882 20.1984C114.896 21.0143 115.65 21.8672 116.145 22.7572C116.664 23.6225 116.923 24.5991 116.923 25.6869C116.923 26.9972 116.552 28.1591 115.811 29.1728C115.934 29.4447 115.996 29.7661 115.996 30.137C115.996 30.6067 115.873 30.9775 115.625 31.2495C115.403 31.5461 115.081 31.6945 114.661 31.6945C114.266 31.6945 113.882 31.6698 113.512 31.6203C113.141 31.5709 112.733 31.5091 112.288 31.4349C111.62 31.608 110.916 31.6945 110.174 31.6945C109.309 31.6945 108.443 31.5585 107.578 31.2866C106.713 31.0393 105.81 30.6314 104.871 30.0628C104.822 28.7525 105.316 27.7883 106.354 27.1702C107.714 28.0603 109 28.5053 110.211 28.5053C111.249 28.5053 112.078 28.2333 112.696 27.6894C113.314 27.1208 113.623 26.4038 113.623 25.5385C113.623 24.4507 113.029 23.4371 111.843 22.4976L109.024 20.2726C108.53 19.877 108.085 19.4691 107.689 19.0488L103.981 25.316C102.621 27.6152 101.311 29.2593 100.05 30.2482C98.8139 31.2124 97.3924 31.6945 95.7854 31.6945Z" fill="#00B2EB"/>
<path d="M69.9514 31.6945C69.6052 31.6945 69.3333 31.5461 69.1355 31.2495C68.913 30.9528 68.8018 30.5696 68.8018 30.0999C68.8018 29.6054 68.9254 29.2222 69.1726 28.9502C69.4198 28.6783 69.7412 28.5423 70.1368 28.5423C71.6201 28.5423 72.9799 28.1468 74.216 27.3556C75.4769 26.5398 76.5152 25.4396 77.3311 24.0552C77.2816 23.6843 77.2569 23.2888 77.2569 22.8685C77.2569 20.9896 77.6277 19.3208 78.3694 17.8621C79.1111 16.4035 80.1124 15.2539 81.3732 14.4133C82.6588 13.5728 84.1174 13.1525 85.7491 13.1525C86.6144 13.1525 87.4674 13.3255 88.3079 13.6716C89.1485 13.993 89.8531 14.438 90.4217 15.0067V13.4862C90.6442 13.4121 90.9038 13.3502 91.2005 13.3008C91.4972 13.2514 91.8062 13.2266 92.1276 13.2266C92.7209 13.2266 93.2772 13.3132 93.7964 13.4862V24.6856C93.7964 26.0453 93.9694 27.0219 94.3155 27.6152C94.6864 28.2086 95.2674 28.5052 96.0585 28.5052C96.4046 28.5052 96.6642 28.6536 96.8373 28.9502C97.035 29.2469 97.1339 29.6425 97.1339 30.1369C97.1339 30.5325 97.0227 30.891 96.8002 31.2124C96.6024 31.5338 96.2686 31.6945 95.7989 31.6945C93.4503 31.6945 91.868 30.7303 91.0522 28.8019C90.3352 29.7167 89.4699 30.4336 88.4563 30.9528C87.4426 31.4472 86.3178 31.6945 85.0816 31.6945C83.5983 31.6945 82.288 31.3607 81.1507 30.6932C80.0382 30.0257 79.1482 29.0986 78.4807 27.9119C77.4423 29.1233 76.1938 30.0628 74.7352 30.7303C73.2766 31.3731 71.6819 31.6945 69.9514 31.6945ZM80.7057 22.8685C80.7057 24.6238 81.1013 26.0083 81.8924 27.0219C82.7083 28.0108 83.8208 28.5052 85.23 28.5052C86.7875 28.5052 88.036 27.9737 88.9755 26.9106C89.9396 25.8476 90.4217 24.4507 90.4217 22.7201V18.5667C89.9273 17.8992 89.2968 17.3677 88.5304 16.9721C87.764 16.5518 86.9729 16.3417 86.1571 16.3417C85.094 16.3417 84.1545 16.626 83.3387 17.1946C82.5228 17.7632 81.88 18.542 81.4103 19.5309C80.9406 20.4951 80.7057 21.6076 80.7057 22.8685Z" fill="#00B2EB"/>
<path d="M57.1061 28.5794C57.7242 28.3816 58.4906 28.0973 59.4054 27.7265C60.3201 27.3309 61.1854 26.923 62.0012 26.5027C61.1854 24.9205 60.7775 23.091 60.7775 21.0143C60.7775 19.4815 61.0618 18.1341 61.6304 16.9721C62.199 15.7854 62.9901 14.8583 64.0038 14.1908C65.0174 13.4986 66.167 13.1525 67.4526 13.1525C68.5404 13.1525 69.5046 13.4121 70.3451 13.9312C71.1857 14.4257 71.8409 15.1179 72.3106 16.0079C72.7803 16.8979 73.0152 17.9239 73.0152 19.0859C72.9163 22.0526 70.8149 24.8586 66.7109 27.504C67.5267 28.1962 68.664 28.5423 70.1226 28.5423C70.4687 28.5423 70.7407 28.6907 70.9385 28.9873C71.1363 29.284 71.2351 29.6796 71.2351 30.174C71.2351 30.6438 71.1239 31.0146 70.9014 31.2865C70.6789 31.5585 70.3575 31.6945 69.9372 31.6945C68.6516 31.6945 67.4526 31.472 66.3401 31.027C65.2523 30.5572 64.3746 29.9144 63.7071 29.0986C62.7924 29.5683 61.8158 30.0257 60.7775 30.4707C59.7638 30.891 58.8985 31.2124 58.1816 31.4349C57.786 31.0888 57.5017 30.6808 57.3286 30.2111C57.1309 29.7414 57.0567 29.1975 57.1061 28.5794ZM64.0038 20.7176C64.0038 22.4729 64.2881 23.9315 64.8567 25.0935C66.5626 23.9563 67.7987 22.9426 68.5651 22.0526C69.3315 21.1379 69.7394 20.149 69.7889 19.0859C69.7889 18.1959 69.5664 17.5037 69.1214 17.0092C68.7011 16.49 68.1077 16.2304 67.3413 16.2304C66.3771 16.2304 65.5737 16.6631 64.9309 17.5284C64.3128 18.3937 64.0038 19.4567 64.0038 20.7176Z" fill="#00B2EB"/>
</svg>
