<svg width="152" height="43" viewBox="0 0 152 43" fill="none" xmlns="http://www.w3.org/2000/svg">
<path d="M126.292 34.3633C125.906 34.3633 125.579 34.1849 125.311 33.8281C125.043 33.4714 124.91 33.0403 124.91 32.535C124.91 31.9107 125.058 31.435 125.356 31.108C125.623 30.7512 125.995 30.5729 126.47 30.5729C127.868 30.5729 129.28 30.3945 130.707 30.0378C132.104 29.681 133.605 29.0419 135.211 28.1203C134.319 26.1582 133.873 23.9583 133.873 21.5205C133.873 19.7071 134.215 18.1018 134.898 16.7045C135.612 15.2776 136.563 14.1479 137.752 13.3155C138.971 12.4831 140.339 12.0669 141.855 12.0669C143.133 12.0669 144.278 12.3642 145.289 12.9587C146.299 13.5533 147.102 14.356 147.697 15.3668C148.291 16.3775 148.588 17.5221 148.588 18.8004C148.588 20.703 147.92 22.5165 146.582 24.2407C145.244 25.965 143.297 27.5852 140.74 29.1013C141.899 30.0824 143.505 30.5729 145.556 30.5729C146.418 30.5729 147.28 30.454 148.142 30.2161C149.005 29.9783 149.837 29.6513 150.64 29.2351C151.086 29.5621 151.413 30.0526 151.621 30.7067C151.859 31.3309 151.977 31.9404 151.977 32.535C150.996 33.0998 149.956 33.5457 148.856 33.8727C147.756 34.1997 146.597 34.3633 145.378 34.3633H145.333C143.668 34.3633 142.137 34.0957 140.74 33.5606C139.343 32.9957 138.198 32.2228 137.306 31.2418C133.501 33.3228 129.83 34.3633 126.292 34.3633ZM137.708 21.3868C137.708 23.3489 138.065 24.9245 138.778 26.1136C142.732 23.8245 144.709 21.3868 144.709 18.8004C144.709 17.8491 144.456 17.1059 143.951 16.5708C143.445 16.0356 142.747 15.7681 141.855 15.7681C140.666 15.7681 139.67 16.3032 138.867 17.3734C138.094 18.4139 137.708 19.7517 137.708 21.3868Z" fill="#00B2EB"/>
<path d="M103.62 34.3633C103.233 34.3633 102.921 34.185 102.683 33.8282C102.446 33.4715 102.327 33.0107 102.327 32.4459C102.327 31.1675 102.862 30.5284 103.932 30.5284C104.883 30.5284 105.939 29.9487 107.098 28.7893C108.257 27.6001 109.61 25.6975 111.156 23.0814L115.927 15.0101C115.868 14.5939 115.838 14.148 115.838 13.6723C115.838 12.1859 116.106 11.0859 116.641 10.3725C117.206 9.65898 117.667 9.22792 118.023 9.07928C118.529 8.96036 119.064 8.97523 119.629 9.12387C120.223 9.24278 120.758 9.45088 121.234 9.74817C121.71 10.0455 122.037 10.4022 122.215 10.8184C122.096 11.3535 121.873 11.9927 121.546 12.7359C121.219 13.4791 120.699 14.475 119.985 15.7236C120.193 16.0506 120.461 16.3776 120.788 16.7046C121.115 17.0316 121.516 17.3884 121.992 17.7749L125.381 20.5396C126.6 21.5206 127.507 22.5463 128.101 23.6165C128.726 24.657 129.038 25.8313 129.038 27.1393C129.038 28.7149 128.592 30.1122 127.7 31.331C127.849 31.6581 127.923 32.0445 127.923 32.4905C127.923 33.0553 127.774 33.5012 127.477 33.8282C127.209 34.185 126.823 34.3633 126.318 34.3633C125.842 34.3633 125.381 34.3336 124.935 34.2742C124.489 34.2147 123.999 34.1404 123.464 34.0512C122.661 34.2593 121.814 34.3633 120.922 34.3633C119.881 34.3633 118.841 34.1998 117.8 33.8728C116.76 33.5755 115.675 33.085 114.545 32.4013C114.486 30.8257 115.08 29.6662 116.329 28.923C117.964 29.9933 119.51 30.5284 120.966 30.5284C122.215 30.5284 123.211 30.2014 123.954 29.5473C124.697 28.8636 125.069 28.0015 125.069 26.961C125.069 25.6529 124.355 24.434 122.928 23.3044L119.539 20.6288C118.945 20.1531 118.41 19.6626 117.934 19.1572L113.475 26.6934C111.84 29.4581 110.264 31.4351 108.748 32.6242C107.262 33.7836 105.552 34.3633 103.62 34.3633Z" fill="#00B2EB"/>
<path d="M72.5552 34.3633C72.139 34.3633 71.812 34.1849 71.5742 33.8281C71.3066 33.4714 71.1729 33.0106 71.1729 32.4458C71.1729 31.8512 71.3215 31.3904 71.6188 31.0634C71.9161 30.7364 72.3025 30.5729 72.7782 30.5729C74.5619 30.5729 76.197 30.0972 77.6834 29.1459C79.1995 28.1649 80.4481 26.8419 81.4292 25.1772C81.3697 24.7312 81.34 24.2556 81.34 23.7502C81.34 21.4908 81.7859 19.4841 82.6778 17.7302C83.5696 15.9762 84.7736 14.5938 86.2898 13.583C87.8357 12.5723 89.5896 12.0669 91.5517 12.0669C92.5922 12.0669 93.6179 12.275 94.6286 12.6912C95.6394 13.0777 96.4866 13.6128 97.1704 14.2965V12.4682C97.438 12.379 97.7501 12.3047 98.1068 12.2453C98.4636 12.1858 98.8352 12.1561 99.2217 12.1561C99.9352 12.1561 100.604 12.2601 101.228 12.4682V25.9352C101.228 27.5703 101.436 28.7446 101.853 29.4581C102.299 30.1715 102.997 30.5283 103.948 30.5283C104.365 30.5283 104.677 30.7066 104.885 31.0634C105.123 31.4201 105.242 31.8958 105.242 32.4904C105.242 32.966 105.108 33.3971 104.84 33.7835C104.603 34.17 104.201 34.3633 103.636 34.3633C100.812 34.3633 98.9095 33.2038 97.9285 30.885C97.0664 31.985 96.0259 32.8471 94.807 33.4714C93.5881 34.066 92.2355 34.3633 90.7491 34.3633C88.9653 34.3633 87.3897 33.9619 86.0222 33.1593C84.6844 32.3566 83.6142 31.2418 82.8116 29.8148C81.563 31.2715 80.0617 32.4012 78.3077 33.2038C76.5537 33.9768 74.6362 34.3633 72.5552 34.3633ZM85.4871 23.7502C85.4871 25.8609 85.9628 27.5257 86.9141 28.7446C87.8951 29.9337 89.2329 30.5283 90.9274 30.5283C92.8003 30.5283 94.3016 29.8891 95.4313 28.6108C96.5907 27.3325 97.1704 25.6528 97.1704 23.5718V18.5774C96.5758 17.7748 95.8178 17.1356 94.8962 16.6599C93.9746 16.1546 93.0233 15.9019 92.0422 15.9019C90.7639 15.9019 89.6342 16.2437 88.6532 16.9275C87.6722 17.6113 86.8992 18.5477 86.3344 19.7368C85.7695 20.8963 85.4871 22.234 85.4871 23.7502Z" fill="#00B2EB"/>
<path d="M57.1091 30.6175C57.8524 30.3796 58.7739 30.0378 59.8739 29.5918C60.9738 29.1162 62.0143 28.6257 62.9954 28.1203C62.0143 26.2176 61.5238 24.0177 61.5238 21.5205C61.5238 19.6774 61.8657 18.0572 62.5495 16.6599C63.2332 15.233 64.1845 14.1182 65.4034 13.3155C66.6223 12.4831 68.0046 12.0669 69.5505 12.0669C70.8586 12.0669 72.018 12.379 73.0287 13.0033C74.0395 13.5979 74.8273 14.4303 75.3922 15.5005C75.957 16.5708 76.2394 17.8045 76.2394 19.2017C76.1205 22.7691 73.5936 26.1433 68.6587 29.3243C69.6397 30.1567 71.0072 30.5729 72.7612 30.5729C73.1774 30.5729 73.5044 30.7512 73.7422 31.108C73.9801 31.4647 74.099 31.9404 74.099 32.535C74.099 33.0998 73.9652 33.5457 73.6976 33.8727C73.4301 34.1997 73.0436 34.3633 72.5382 34.3633C70.9923 34.3633 69.5505 34.0957 68.2127 33.5606C66.9047 32.9957 65.8493 32.2228 65.0466 31.2418C63.9467 31.8066 62.7724 32.3566 61.5238 32.8917C60.305 33.3971 59.2645 33.7835 58.4023 34.0511C57.9267 33.6349 57.5848 33.1444 57.3767 32.5795C57.1389 32.0147 57.0497 31.3607 57.1091 30.6175ZM65.4034 21.1638C65.4034 23.2745 65.7453 25.0285 66.429 26.4257C68.4803 25.0582 69.9667 23.8394 70.8883 22.7691C71.8099 21.6692 72.3004 20.4801 72.3599 19.2017C72.3599 18.1315 72.0923 17.2991 71.5572 16.7045C71.0518 16.0802 70.3383 15.7681 69.4167 15.7681C68.2573 15.7681 67.2911 16.2883 66.5182 17.3288C65.775 18.3693 65.4034 19.6477 65.4034 21.1638Z" fill="#00B2EB"/>
<rect width="42.0912" height="42.2964" rx="15" fill="#00B2EB"/>
<path d="M10.0178 28.5506C10.761 28.3127 11.6826 27.9709 12.7826 27.5249C13.8825 27.0493 14.923 26.5588 15.9041 26.0534C14.923 24.1508 14.4325 21.9508 14.4325 19.4537C14.4325 17.6105 14.7744 15.9903 15.4581 14.5931C16.1419 13.1661 17.0932 12.0513 18.3121 11.2486C19.5309 10.4162 20.9133 10 22.4592 10C23.7673 10 24.9267 10.3121 25.9374 10.9364C26.9482 11.531 27.736 12.3634 28.3008 13.4336C28.8657 14.5039 29.1481 15.7376 29.1481 17.1348C29.0292 20.7023 26.5023 24.0764 21.5674 27.2574C22.5484 28.0898 23.9159 28.506 25.6699 28.506C26.532 28.506 27.3941 28.3871 28.2563 28.1492C29.1184 27.9114 29.9508 27.5844 30.7534 27.1682C31.1994 27.4952 31.5264 27.9857 31.7345 28.6398C31.9723 29.2641 32.0912 29.8735 32.0912 30.4681C31.1102 31.0329 30.0697 31.4788 28.9697 31.8058C27.8698 32.1329 26.7104 32.2964 25.4915 32.2964H25.4469C23.901 32.2964 22.4592 32.0288 21.1214 31.4937C19.8134 30.9288 18.758 30.1559 17.9553 29.1749C16.8554 29.7397 15.6811 30.2897 14.4325 30.8248C13.2136 31.3302 12.1732 31.7167 11.311 31.9842C10.8354 31.568 10.4935 31.0775 10.2854 30.5126C10.0476 29.9478 9.95838 29.2938 10.0178 28.5506ZM18.3121 19.0969C18.3121 21.2076 18.654 22.9616 19.3377 24.3589C21.389 22.9913 22.8754 21.7725 23.797 20.7023C24.7186 19.6023 25.2091 18.4132 25.2685 17.1348C25.2685 16.0646 25.001 15.2322 24.4659 14.6376C23.9605 14.0133 23.247 13.7012 22.3254 13.7012C21.166 13.7012 20.1998 14.2214 19.4269 15.2619C18.6837 16.3024 18.3121 17.5808 18.3121 19.0969Z" fill="white"/>
</svg>
