<svg width="21" height="21" viewBox="0 0 21 21" fill="none" xmlns="http://www.w3.org/2000/svg">
<path d="M8.3125 10.5C9.35679 10.5 10.3583 10.0852 11.0967 9.34673C11.8352 8.60831 12.25 7.60679 12.25 6.5625C12.25 5.51821 11.8352 4.51669 11.0967 3.77827C10.3583 3.03984 9.35679 2.625 8.3125 2.625C7.26821 2.625 6.26669 3.03984 5.52827 3.77827C4.78984 4.51669 4.375 5.51821 4.375 6.5625C4.375 7.60679 4.78984 8.60831 5.52827 9.34673C6.26669 10.0852 7.26821 10.5 8.3125 10.5ZM18.375 7.875C18.375 8.57119 18.0984 9.23887 17.6062 9.73116C17.1139 10.2234 16.4462 10.5 15.75 10.5C15.0538 10.5 14.3861 10.2234 13.8938 9.73116C13.4016 9.23887 13.125 8.57119 13.125 7.875C13.125 7.17881 13.4016 6.51113 13.8938 6.01884C14.3861 5.52656 15.0538 5.25 15.75 5.25C16.4462 5.25 17.1139 5.52656 17.6062 6.01884C18.0984 6.51113 18.375 7.17881 18.375 7.875ZM8.3125 11.375C10.0564 11.375 11.6419 11.907 12.8074 12.6577C13.391 13.034 13.8906 13.4776 14.2538 13.9615C14.6099 14.4384 14.875 15.0115 14.875 15.6249C14.875 16.2855 14.5687 16.8149 14.119 17.1972C13.6946 17.556 13.1416 17.7888 12.5703 17.9489C11.4214 18.27 9.9015 18.375 8.3125 18.375C6.7235 18.375 5.20363 18.27 4.05563 17.9489C3.48338 17.7888 2.93037 17.556 2.50688 17.1972C2.05538 16.8157 1.75 16.2855 1.75 15.6249C1.75 15.0106 2.01513 14.4384 2.37125 13.9624C2.73438 13.4776 3.234 13.0331 3.81763 12.6586C4.98312 11.9061 6.56862 11.375 8.3125 11.375ZM15.75 11.375C16.905 11.375 17.9532 11.7565 18.725 12.2946C19.4443 12.796 20.125 13.587 20.125 14.4996C20.125 15.0132 19.9036 15.4385 19.5667 15.7474C19.2544 16.0344 18.8589 16.2094 18.4783 16.3249C17.717 16.555 16.737 16.625 15.75 16.625H15.5724C15.6861 16.3205 15.75 15.9862 15.75 15.6249C15.75 14.7586 15.3799 14.0061 14.9538 13.4374C14.5285 12.8695 13.965 12.3699 13.3359 11.9578C14.0832 11.5753 14.9105 11.3755 15.75 11.375Z" fill="black"/>
</svg>
