<svg width="16" height="19" viewBox="0 0 16 19" fill="none" xmlns="http://www.w3.org/2000/svg">
<g clip-path="url(#clip0_59_396)">
<path d="M6.36333 1.15556C6.97405 1.2576 7.38821 1.83818 7.28642 2.45043L6.94246 4.51942H10.2803L10.6839 2.08097C10.7857 1.46872 11.3649 1.05352 11.9756 1.15556C12.5863 1.2576 13.0004 1.83818 12.8987 2.45043L12.5582 4.51942H14.6009C15.2222 4.51942 15.7241 5.0226 15.7241 5.64541C15.7241 6.26821 15.2222 6.77139 14.6009 6.77139H12.1826L11.435 11.2753H13.4778C14.099 11.2753 14.6009 11.7785 14.6009 12.4013C14.6009 13.0241 14.099 13.5273 13.4778 13.5273H11.0595L10.6559 15.9657C10.5541 16.578 9.97496 16.9932 9.36424 16.8911C8.75353 16.7891 8.33937 16.2085 8.44116 15.5963L8.78512 13.5308H5.44376L5.04013 15.9692C4.93834 16.5815 4.35922 16.9967 3.74851 16.8947C3.13779 16.7926 2.72363 16.212 2.82542 15.5998L3.16587 13.5273H1.12315C0.501907 13.5273 0 13.0241 0 12.4013C0 11.7785 0.501907 11.2753 1.12315 11.2753H3.54143L4.28902 6.77139H2.2463C1.62505 6.77139 1.12315 6.26821 1.12315 5.64541C1.12315 5.0226 1.62505 4.51942 2.2463 4.51942H4.66457L5.0682 2.08097C5.16999 1.46872 5.74911 1.05352 6.35982 1.15556H6.36333ZM6.56691 6.77139L5.81931 11.2753H9.15716L9.90476 6.77139H6.56691Z" fill="black"/>
</g>
<defs>
<clipPath id="clip0_59_396">
<rect width="15.7241" height="18.0157" fill="white" transform="translate(0 0.015625)"/>
</clipPath>
</defs>
</svg>
