<svg width="16" height="19" viewBox="0 0 16 19" fill="none" xmlns="http://www.w3.org/2000/svg">
<g clip-path="url(#clip0_11_1170)">
<path d="M6.36333 1.13993C6.97405 1.24197 7.38821 1.82256 7.28642 2.43481L6.94246 4.5038H10.2803L10.6839 2.06535C10.7857 1.4531 11.3649 1.03789 11.9756 1.13993C12.5863 1.24197 13.0004 1.82256 12.8987 2.43481L12.5582 4.5038H14.6009C15.2222 4.5038 15.7241 5.00697 15.7241 5.62978C15.7241 6.25259 15.2222 6.75576 14.6009 6.75576H12.1826L11.435 11.2597H13.4778C14.099 11.2597 14.6009 11.7629 14.6009 12.3857C14.6009 13.0085 14.099 13.5116 13.4778 13.5116H11.0595L10.6559 15.9501C10.5541 16.5624 9.97496 16.9776 9.36424 16.8755C8.75353 16.7735 8.33937 16.1929 8.44116 15.5806L8.78512 13.5152H5.44376L5.04013 15.9536C4.93834 16.5659 4.35922 16.9811 3.74851 16.879C3.13779 16.777 2.72363 16.1964 2.82542 15.5842L3.16587 13.5116H1.12315C0.501907 13.5116 0 13.0085 0 12.3857C0 11.7629 0.501907 11.2597 1.12315 11.2597H3.54143L4.28902 6.75576H2.2463C1.62505 6.75576 1.12315 6.25259 1.12315 5.62978C1.12315 5.00697 1.62505 4.5038 2.2463 4.5038H4.66457L5.0682 2.06535C5.16999 1.4531 5.74911 1.03789 6.35982 1.13993H6.36333ZM6.56691 6.75576L5.81931 11.2597H9.15716L9.90476 6.75576H6.56691Z" fill="#00B2EB"/>
</g>
<defs>
<clipPath id="clip0_11_1170">
<rect width="15.7241" height="18.0157" fill="white"/>
</clipPath>
</defs>
</svg>
