<svg width="96" height="26" viewBox="0 0 96 26" fill="none" xmlns="http://www.w3.org/2000/svg">
<path d="M0.554073 21.8785C1.29728 21.6407 2.21887 21.2988 3.31882 20.8529C4.41877 20.3772 5.45927 19.8867 6.44031 19.3813C5.45927 17.4787 4.96875 15.2788 4.96875 12.7816C4.96875 10.9384 5.31063 9.31823 5.99438 7.92099C6.67814 6.49402 7.62945 5.37921 8.84832 4.57654C10.0672 3.74414 11.4496 3.32794 12.9954 3.32794C14.3035 3.32794 15.4629 3.64009 16.4737 4.26439C17.4844 4.85896 18.2722 5.69135 18.8371 6.76158C19.4019 7.8318 19.6843 9.06554 19.6843 10.4628C19.5654 14.0302 17.0385 17.4044 12.1036 20.5853C13.0846 21.4177 14.4521 21.8339 16.2061 21.8339C16.6223 21.8339 16.9493 22.0123 17.1872 22.369C17.425 22.7258 17.5439 23.2014 17.5439 23.796C17.5439 24.3608 17.4101 24.8068 17.1426 25.1338C16.875 25.4608 16.4885 25.6243 15.9832 25.6243C14.4373 25.6243 12.9954 25.3567 11.6577 24.8216C10.3496 24.2568 9.29424 23.4838 8.49158 22.5028C7.39162 23.0676 6.21735 23.6176 4.96875 24.1527C3.74988 24.6581 2.70939 25.0446 1.84726 25.3121C1.37161 24.896 1.02973 24.4054 0.821629 23.8406C0.583801 23.2757 0.494616 22.6217 0.554073 21.8785ZM8.84832 12.4249C8.84832 14.5356 9.1902 16.2896 9.87395 17.6868C11.9252 16.3193 13.4116 15.1004 14.3332 14.0302C15.2548 12.9302 15.7453 11.7411 15.8048 10.4628C15.8048 9.39255 15.5372 8.56015 15.0021 7.96558C14.4967 7.34128 13.7832 7.02914 12.8617 7.02914C11.7023 7.02914 10.7361 7.54938 9.96314 8.58988C9.21992 9.63038 8.84832 10.9087 8.84832 12.4249ZM16.0002 25.6243C15.584 25.6243 15.257 25.4459 15.0192 25.0892C14.7516 24.7324 14.6178 24.2717 14.6178 23.7068C14.6178 23.1122 14.7665 22.6515 15.0638 22.3244C15.3611 21.9974 15.7475 21.8339 16.2232 21.8339C18.0069 21.8339 19.642 21.3583 21.1284 20.407C22.6445 19.4259 23.8931 18.103 24.8742 16.4382C24.8147 15.9923 24.785 15.5166 24.785 15.0112C24.785 12.7519 25.2309 10.7452 26.1228 8.99122C27.0146 7.23724 28.2186 5.85486 29.7348 4.84409C31.2807 3.83332 33.0346 3.32794 34.9967 3.32794C36.0372 3.32794 37.0628 3.53604 38.0736 3.95224C39.0844 4.33871 39.9316 4.87382 40.6154 5.55758V3.72927C40.883 3.64009 41.1951 3.56577 41.5518 3.50631C41.9086 3.44685 42.2802 3.41713 42.6667 3.41713C43.3801 3.41713 44.049 3.52118 44.6733 3.72927V17.1963C44.6733 18.8313 44.8814 20.0056 45.2976 20.7191C45.7436 21.4326 46.4422 21.7893 47.3935 21.7893C47.8097 21.7893 48.1218 21.9677 48.3299 22.3244C48.5678 22.6812 48.6867 23.1568 48.6867 23.7514C48.6867 24.2271 48.5529 24.6581 48.2853 25.0446C48.0475 25.4311 47.6462 25.6243 47.0813 25.6243C44.2571 25.6243 42.3545 24.4649 41.3735 22.1461C40.5113 23.246 39.4709 24.1081 38.252 24.7324C37.0331 25.327 35.6805 25.6243 34.194 25.6243C32.4103 25.6243 30.8347 25.223 29.4672 24.4203C28.1294 23.6176 27.0592 22.5028 26.2565 21.0758C25.0079 22.5325 23.5067 23.6622 21.7527 24.4649C19.9987 25.2378 18.0812 25.6243 16.0002 25.6243ZM28.9321 15.0112C28.9321 17.122 29.4078 18.7867 30.3591 20.0056C31.3401 21.1948 32.6779 21.7893 34.3724 21.7893C36.2453 21.7893 37.7466 21.1502 38.8763 19.8718C40.0357 18.5935 40.6154 16.9139 40.6154 14.8329V9.83848C40.0208 9.03581 39.2628 8.39665 38.3412 7.92099C37.4196 7.41561 36.4683 7.16291 35.4872 7.16291C34.2089 7.16291 33.0792 7.50479 32.0982 8.18855C31.1172 8.8723 30.3442 9.80875 29.7794 10.9979C29.2145 12.1573 28.9321 13.4951 28.9321 15.0112ZM47.065 25.6243C46.6785 25.6243 46.3663 25.4459 46.1285 25.0892C45.8907 24.7324 45.7718 24.2717 45.7718 23.7068C45.7718 22.4285 46.3069 21.7893 47.3771 21.7893C48.3284 21.7893 49.3838 21.2096 50.5432 20.0502C51.7026 18.8611 53.0553 16.9584 54.6011 14.3423L59.3726 6.27106C59.3131 5.85486 59.2834 5.40893 59.2834 4.93328C59.2834 3.44686 59.5509 2.3469 60.086 1.63342C60.6509 0.919933 61.1117 0.488871 61.4684 0.340229C61.9738 0.221314 62.5089 0.236178 63.0737 0.384821C63.6683 0.503735 64.2034 0.711834 64.6791 1.00912C65.1547 1.3064 65.4818 1.66315 65.6601 2.07935C65.5412 2.61446 65.3183 3.25362 64.9912 3.99683C64.6642 4.74004 64.144 5.73595 63.4305 6.98454C63.6386 7.31156 63.9061 7.63857 64.2332 7.96558C64.5602 8.2926 64.9615 8.64934 65.4372 9.03581L68.8262 11.8006C70.0451 12.7816 70.9518 13.8072 71.5464 14.8775C72.1707 15.918 72.4828 17.0922 72.4828 18.4003C72.4828 19.9759 72.0369 21.3731 71.145 22.592C71.2937 22.919 71.368 23.3055 71.368 23.7514C71.368 24.3162 71.2194 24.7622 70.9221 25.0892C70.6545 25.4459 70.268 25.6243 69.7627 25.6243C69.287 25.6243 68.8262 25.5946 68.3803 25.5351C67.9344 25.4757 67.4438 25.4013 66.9087 25.3121C66.1061 25.5202 65.2588 25.6243 64.3669 25.6243C63.3264 25.6243 62.2859 25.4608 61.2454 25.1338C60.205 24.8365 59.1199 24.346 57.9902 23.6622C57.9307 22.0866 58.5253 20.9272 59.7739 20.184C61.409 21.2542 62.9548 21.7893 64.4115 21.7893C65.6601 21.7893 66.656 21.4623 67.3992 20.8083C68.1425 20.1245 68.5141 19.2624 68.5141 18.2219C68.5141 16.9139 67.8006 15.695 66.3736 14.5653L62.9846 11.8897C62.39 11.4141 61.8549 10.9236 61.3792 10.4182L56.92 17.9544C55.2849 20.7191 53.7093 22.696 52.1931 23.8852C50.7067 25.0446 48.9973 25.6243 47.065 25.6243ZM69.7369 25.6243C69.3504 25.6243 69.0234 25.4459 68.7558 25.0892C68.4883 24.7324 68.3545 24.3014 68.3545 23.796C68.3545 23.1717 68.5031 22.696 68.8004 22.369C69.068 22.0123 69.4396 21.8339 69.9153 21.8339C71.3125 21.8339 72.7246 21.6555 74.1516 21.2988C75.5488 20.9421 77.0501 20.3029 78.6554 19.3813C77.7636 17.4192 77.3176 15.2193 77.3176 12.7816C77.3176 10.9682 77.6595 9.36282 78.3433 7.96558C79.0568 6.53862 80.0081 5.40893 81.1972 4.57654C82.4161 3.74414 83.7836 3.32794 85.2997 3.32794C86.5781 3.32794 87.7226 3.62523 88.7334 4.2198C89.7441 4.81436 90.5468 5.61703 91.1414 6.6278C91.736 7.63857 92.0332 8.78312 92.0332 10.0614C92.0332 11.9641 91.3643 13.7775 90.0266 15.5018C88.6888 17.226 86.7416 18.8462 84.1849 20.3624C85.3443 21.3434 86.9497 21.8339 89.0009 21.8339C89.8631 21.8339 90.7252 21.715 91.5873 21.4772C92.4494 21.2393 93.2818 20.9123 94.0845 20.4961C94.5304 20.8231 94.8574 21.3137 95.0655 21.9677C95.3034 22.592 95.4223 23.2014 95.4223 23.796C94.4412 24.3608 93.4007 24.8068 92.3008 25.1338C91.2008 25.4608 90.0414 25.6243 88.8226 25.6243H88.778C87.1132 25.6243 85.5822 25.3567 84.1849 24.8216C82.7877 24.2568 81.6431 23.4838 80.7513 22.5028C76.946 24.5838 73.2746 25.6243 69.7369 25.6243ZM81.1526 12.6478C81.1526 14.6099 81.5094 16.1855 82.2228 17.3746C86.1767 15.0856 88.1537 12.6478 88.1537 10.0614C88.1537 9.11013 87.901 8.36692 87.3956 7.8318C86.8902 7.29669 86.1916 7.02914 85.2997 7.02914C84.1106 7.02914 83.1147 7.56425 82.312 8.63447C81.5391 9.67497 81.1526 11.0128 81.1526 12.6478Z" fill="#00B2EB"/>
</svg>
